HIERARCHY
ROOT SpineBase
{
  OFFSET 0.000000 0.000000 0.000000
  CHANNELS 6 Xposition Yposition Zposition Zrotation Xrotation Yrotation
  JOINT SpineMid
  {
    OFFSET 0.000000 31.015968 0.000000
    CHANNELS 3 Zrotation Xrotation Yrotation
    JOINT SpineShoulder
    {
      OFFSET -0.027176 23.016087 -0.882157
      CHANNELS 3 Zrotation Xrotation Yrotation
      JOINT Neck
      {
        OFFSET 0.021770 7.608872 -0.627489
        CHANNELS 3 Zrotation Xrotation Yrotation
        JOINT Head
        {
          OFFSET 2.617047 14.126519 3.688699
          CHANNELS 3 Zrotation Xrotation Yrotation
          End Site
          {
            OFFSET 0 0 0
          }
        }
      }
      JOINT ShoulderLeft
      {
        OFFSET -10.922848 -2.618739 -11.921466
        CHANNELS 3 Zrotation Xrotation Yrotation
        JOINT ElbowLeft
        {
          OFFSET -6.252978 -23.152872 -6.194142
          CHANNELS 3 Zrotation Xrotation Yrotation
          JOINT WristLeft
          {
            OFFSET 24.956078 -8.637081 -1.626460
            CHANNELS 3 Zrotation Xrotation Yrotation
            JOINT HandLeft
            {
              OFFSET 7.507744 0.578310 2.145126
              CHANNELS 3 Zrotation Xrotation Yrotation
              JOINT HandTipLeft
              {
                OFFSET 7.430277 -0.774184 -0.261077
                CHANNELS 3 Zrotation Xrotation Yrotation
                End Site
                {
                  OFFSET 0 0 0
                }
              }
              JOINT ThumbLeft
              {
                OFFSET -0.127092 -0.515820 -3.939344
                CHANNELS 3 Zrotation Xrotation Yrotation
                End Site
                {
                  OFFSET 0 0 0
                }
              }
            }
          }
        }
      }
      JOINT ShoulderRight
      {
        OFFSET 13.687641 -5.143161 9.604588
        CHANNELS 3 Zrotation Xrotation Yrotation
        JOINT ElbowRight
        {
          OFFSET 1.338819 -24.241670 -8.490299
          CHANNELS 3 Zrotation Xrotation Yrotation
          JOINT WristRight
          {
            OFFSET 5.945379 0.683068 -23.845993
            CHANNELS 3 Zrotation Xrotation Yrotation
            JOINT HandRight
            {
              OFFSET -1.086605 -1.588155 -3.219386
              CHANNELS 3 Zrotation Xrotation Yrotation
              JOINT HandTipRight
              {
                OFFSET -1.203694 -0.191609 -1.746159
                CHANNELS 3 Zrotation Xrotation Yrotation
                End Site
                {
                  OFFSET 0 0 0
                }
              }
              JOINT ThumbRight
              {
                OFFSET 1.987860 -1.412987 -1.767524
                CHANNELS 3 Zrotation Xrotation Yrotation
                End Site
                {
                  OFFSET 0 0 0
                }
              }
            }
          }
        }
      }
    }
  }
  JOINT HipLeft
  {
    OFFSET -5.056113 1.548731 -8.150446
    CHANNELS 3 Zrotation Xrotation Yrotation
    JOINT KneeLeft
    {
      OFFSET -6.865463 -37.554899 -0.842187
      CHANNELS 3 Zrotation Xrotation Yrotation
      JOINT AnkleLeft
      {
        OFFSET -7.687404 -36.882666 5.634563
        CHANNELS 3 Zrotation Xrotation Yrotation
        JOINT FootLeft
        {
          OFFSET 0.731922 -8.156277 -6.349983
          CHANNELS 3 Zrotation Xrotation Yrotation
          End Site
          {
            OFFSET 0 0 0
          }
        }
      }
    }
  }
  JOINT HipRight
  {
    OFFSET 5.827305 -0.219677 1.064544
    CHANNELS 3 Zrotation Xrotation Yrotation
    JOINT KneeRight
    {
      OFFSET -0.037211 -38.303331 4.941180
      CHANNELS 3 Zrotation Xrotation Yrotation
      JOINT AnkleRight
      {
        OFFSET -5.300207 -35.514026 13.261545
        CHANNELS 3 Zrotation Xrotation Yrotation
        JOINT FootRight
        {
          OFFSET 3.656712 -8.044571 -4.829456
          CHANNELS 3 Zrotation Xrotation Yrotation
          End Site
          {
            OFFSET 0 0 0
          }
        }
      }
    }
  }
}
MOTION
Frames: 10
Frame Time: 0.033333
-45.305857 82.710269 349.127702 4.061693 -3.540581 -40.724771 -0.213914 -0.252285 41.000424 -0.067745 -0.080660 0.177998 -9.791430 -18.602685 4.995032 0.000000 0.000000 0.000000 8.203696 6.735512 -5.379022 14.193621 0.105436 5.411048 -2.721250 -6.612616 14.593914 -11.185369 3.737326 -33.698263 0.000000 0.000000 0.000000 0.000000 0.000000 0.000000 7.596345 -15.015956 -4.326999 -12.520961 23.885769 11.606150 29.826335 44.560149 -60.310183 6.815496 -44.316598 16.751813 0.000000 0.000000 0.000000 0.000000 0.000000 0.000000 -5.386216 0.027060 40.851632 5.282700 -6.525066 2.472298 0.652202 -5.439370 -8.263899 0.000000 0.000000 0.000000 -1.090256 3.768841 41.444449 -1.551381 -3.955616 1.547627 19.120947 32.993943 -7.703581 0.000000 0.000000 0.000000
-45.284954 82.715970 349.108304 4.052992 -3.613174 -40.710862 -0.235640 -0.264399 40.988184 -0.095854 -0.070530 0.175030 -9.107639 -19.051055 5.007151 0.000000 0.000000 0.000000 8.080415 6.726584 -5.291216 14.799634 0.339074 5.486260 -3.797485 -6.656334 14.242418 -10.810377 3.554223 -33.698444 0.000000 0.000000 0.000000 0.000000 0.000000 0.000000 7.770522 -14.703878 -4.372041 -12.562162 24.295438 11.790263 26.951196 44.470811 -56.732334 9.579302 -43.504209 12.980960 0.000000 0.000000 0.000000 0.000000 0.000000 0.000000 -5.426981 0.088837 40.842962 5.285744 -6.517140 2.470952 0.762739 -5.646039 -8.383293 0.000000 0.000000 0.000000 -1.149501 3.788905 41.428000 -1.618068 -3.959283 1.512376 19.159295 33.043595 -7.628539 0.000000 0.000000 0.000000
-45.266684 82.720738 349.084927 4.023745 -3.685385 -40.670730 -0.266689 -0.272213 40.947918 -0.128538 -0.058127 0.170650 -8.347578 -19.466645 5.010754 0.000000 0.000000 0.000000 7.903315 6.753355 -5.185497 15.568395 0.595637 5.644469 -5.833360 -6.633864 13.444706 -9.387411 2.750610 -34.310140 0.000000 0.000000 0.000000 0.000000 0.000000 0.000000 8.018069 -14.572180 -4.420774 -12.688720 24.827392 12.057189 24.112398 44.327022 -53.221190 15.618019 -44.545917 12.637906 0.000000 0.000000 0.000000 0.000000 0.000000 0.000000 -5.451852 0.166268 40.808152 5.301493 -6.489340 2.467319 0.838204 -5.798982 -8.470838 0.000000 0.000000 0.000000 -1.184562 3.816353 41.384404 -1.601412 -3.900489 1.501328 19.097073 33.051821 -7.539499 0.000000 0.000000 0.000000
-45.246861 82.718852 349.066544 4.008705 -3.755140 -40.615898 -0.287424 -0.285575 40.894284 -0.144812 -0.056890 0.168367 -7.806950 -19.729489 5.018542 0.000000 0.000000 0.000000 7.676753 6.817469 -5.085285 16.357716 0.862745 5.845976 -7.937218 -6.669283 11.836565 -7.065869 1.764488 -33.370787 0.000000 0.000000 0.000000 0.000000 0.000000 0.000000 7.946942 -17.017124 -4.318861 -13.079233 25.892497 12.782896 22.051502 46.004231 -50.061829 21.755621 -45.280763 8.700770 0.000000 0.000000 0.000000 0.000000 0.000000 0.000000 -5.485724 0.234006 40.758574 5.320545 -6.403554 2.449740 0.880627 -6.224606 -8.545201 0.000000 0.000000 0.000000 -1.237269 3.829209 41.326020 -1.565139 -3.898588 1.505270 19.018748 33.124217 -7.461557 0.000000 0.000000 0.000000
-45.231855 82.710049 349.056844 4.005847 -3.822534 -40.513949 -0.292292 -0.300516 40.794822 -0.151944 -0.061041 0.167813 -7.537815 -19.807840 5.026781 0.000000 0.000000 0.000000 7.379739 6.892064 -4.972381 17.180178 1.114663 6.003838 -9.407099 -6.771025 10.206730 -6.414512 1.214979 -33.276480 0.000000 0.000000 0.000000 0.000000 0.000000 0.000000 8.087019 -16.313265 -4.382226 -13.060177 26.077957 12.808398 18.856508 45.535016 -46.186485 24.206177 -45.709517 6.459007 0.000000 0.000000 0.000000 0.000000 0.000000 0.000000 -5.526938 0.296614 40.661997 5.347380 -6.398065 2.454089 0.809557 -6.335749 -8.522593 0.000000 0.000000 0.000000 -1.291141 3.836041 41.221397 -1.585592 -3.965907 1.499928 18.981232 33.282411 -7.380844 0.000000 0.000000 0.000000
-45.215140 82.699102 349.049956 3.995203 -3.880616 -40.377465 -0.307213 -0.309548 40.659533 -0.160728 -0.066442 0.166608 -7.221340 -19.951962 5.037981 0.000000 0.000000 0.000000 7.097388 6.943151 -4.854336 17.943433 1.360462 6.156482 -10.782771 -6.846844 8.548469 -5.827096 0.743070 -32.983633 0.000000 0.000000 0.000000 0.000000 0.000000 0.000000 8.449779 -13.398873 -4.573378 -12.763450 25.775575 12.275823 15.407735 44.766021 -42.580386 27.173334 -46.258423 -0.125997 0.000000 0.000000 0.000000 0.000000 0.000000 0.000000 -5.555780 0.360714 40.530371 5.381100 -6.436490 2.471023 0.699292 -6.177100 -8.456522 0.000000 0.000000 0.000000 -1.341951 3.826840 41.080256 -1.530648 -4.055850 1.524600 18.885282 33.481497 -7.314674 0.000000 0.000000 0.000000
-45.200547 82.686884 349.049132 3.999992 -3.914005 -40.211411 -0.304799 -0.298212 40.494955 -0.148183 -0.070680 0.168124 -7.253149 -20.135065 5.079176 0.000000 0.000000 0.000000 6.758254 6.987990 -4.745212 18.499977 1.506823 6.256178 -11.677184 -6.923687 6.853295 -5.310230 0.284383 -32.679890 0.000000 0.000000 0.000000 0.000000 0.000000 0.000000 8.822720 -9.117107 -4.847272 -12.195282 24.993139 11.339315 13.840409 42.654363 -41.709717 33.063552 -47.855488 -6.179200 0.000000 0.000000 0.000000 0.000000 0.000000 0.000000 -5.579939 0.399065 40.367591 5.415726 -6.530733 2.502319 0.592985 -5.962731 -8.408467 0.000000 0.000000 0.000000 -1.376309 3.811085 40.911528 -1.478386 -4.136850 1.551203 18.737625 33.700494 -7.212335 0.000000 0.000000 0.000000
-45.181770 82.675096 349.045480 4.014988 -3.978703 -40.100761 -0.269684 -0.286469 40.388554 -0.124321 -0.083901 0.172313 -7.363385 -20.117246 5.103132 0.000000 0.000000 0.000000 6.527969 7.030373 -4.684081 18.804846 1.779863 6.491444 -12.059308 -7.013390 6.682479 -4.464834 -0.239780 -33.919026 0.000000 0.000000 0.000000 0.000000 0.000000 0.000000 9.265527 -3.988339 -5.227971 -11.478802 24.257692 10.243147 10.213918 38.444156 -38.469781 29.147722 -46.493210 -6.004341 0.000000 0.000000 0.000000 0.000000 0.000000 0.000000 -5.632316 0.449384 40.262383 5.429945 -6.650932 2.535844 0.429536 -5.566487 -8.278524 0.000000 0.000000 0.000000 -1.441965 3.815571 40.799695 -1.415026 -4.227537 1.584463 18.625565 33.886499 -7.161796 0.000000 0.000000 0.000000
-45.164307 82.664829 349.044532 4.023111 -4.058459 -40.031609 -0.223574 -0.280560 40.324079 -0.102493 -0.100789 0.176537 -7.431640 -19.956497 5.105833 0.000000 0.000000 0.000000 6.434238 7.072800 -4.666977 19.266417 1.964960 6.499414 -13.014464 -6.935667 6.642881 -3.432873 -0.540209 -33.762856 0.000000 0.000000 0.000000 0.000000 0.000000 0.000000 9.709335 1.252759 -5.648966 -10.679856 23.157761 9.087317 6.011594 34.493777 -34.468087 25.745537 -45.251918 -6.115177 0.000000 0.000000 0.000000 0.000000 0.000000 0.000000 -5.689327 0.511698 40.199639 5.434087 -6.777800 2.568895 0.276186 -5.005109 -8.127969 0.000000 0.000000 0.000000 -1.495570 3.890831 40.733200 -1.363714 -4.266099 1.613261 18.499853 33.958897 -7.122363 0.000000 0.000000 0.000000
-45.148281 82.658778 349.041540 4.000770 -4.143766 -39.951252 -0.199537 -0.281399 40.245847 -0.099433 -0.108512 0.177218 -7.188430 -19.816491 5.081832 0.000000 0.000000 0.000000 6.395127 7.109495 -4.641214 19.075429 2.145507 6.679446 -11.507737 -7.255685 7.617371 -5.300058 0.182325 -34.592217 0.000000 0.000000 0.000000 0.000000 0.000000 0.000000 10.161024 5.856129 -6.042564 -9.928450 21.877113 7.996586 0.739781 31.305504 -29.051041 19.804417 -42.400765 -7.095715 0.000000 0.000000 0.000000 0.000000 0.000000 0.000000 -5.726366 0.599132 40.126011 5.426042 -6.865139 2.589274 0.068895 -4.658965 -7.930967 0.000000 0.000000 0.000000 -1.529731 3.986000 40.653693 -1.323469 -4.267390 1.630170 18.417364 33.961139 -7.099993 0.000000 0.000000 0.000000
